<?xml version="1.0" encoding="UTF-8"?>
<svg width="32px" height="32px" viewBox="0 0 32 32" version="1.1" xmlns="http://www.w3.org/2000/svg">
    <g stroke="none" stroke-width="1" fill="none" fill-rule="evenodd">
        <circle fill="#2775CA" cx="16" cy="16" r="16"/>
        <g transform="translate(6.000000, 6.000000)" fill="#FFFFFF" fill-rule="nonzero">
            <path d="M10,0 C4.477,0 0,4.477 0,10 C0,15.523 4.477,20 10,20 C15.523,20 20,15.523 20,10 C20,4.477 15.523,0 10,0 Z M10,18.5 C5.305,18.5 1.5,14.695 1.5,10 C1.5,5.305 5.305,1.5 10,1.5 C14.695,1.5 18.5,5.305 18.5,10 C18.5,14.695 14.695,18.5 10,18.5 Z"/>
            <path d="M13.5,7.5 L13.5,8.5 C14.605,8.5 15.5,9.395 15.5,10.5 L15.5,12.5 C15.5,13.605 14.605,14.5 13.5,14.5 L6.5,14.5 C5.395,14.5 4.5,13.605 4.5,12.5 L4.5,10.5 C4.5,9.395 5.395,8.5 6.5,8.5 L6.5,7.5 C6.5,6.395 7.395,5.5 8.5,5.5 L11.5,5.5 C12.605,5.5 13.5,6.395 13.5,7.5 Z M12.5,7.5 C12.5,6.948 12.052,6.5 11.5,6.5 L8.5,6.5 C7.948,6.5 7.5,6.948 7.5,7.5 L7.5,8.5 L12.5,8.5 L12.5,7.5 Z M6.5,9.5 C5.948,9.5 5.5,9.948 5.5,10.5 L5.5,12.5 C5.5,13.052 5.948,13.5 6.5,13.5 L13.5,13.5 C14.052,13.5 14.5,13.052 14.5,12.5 L14.5,10.5 C14.5,9.948 14.052,9.5 13.5,9.5 L6.5,9.5 Z"/>
        </g>
    </g>
</svg> 